<svg xmlns="http://www.w3.org/2000/svg" xmlns:xlink="http://www.w3.org/1999/xlink" width="32" height="32" viewBox="0 0 32 32"><defs><polygon id="a" points="15.787 .222 0 .222 0 31.796 31.574 31.796 31.574 .222"/></defs><g fill="none" fill-rule="evenodd"><mask id="b" fill="#fff"><use xlink:href="#a"/></mask><path fill="#000" fill-rule="nonzero" d="M10.5244584,0.221997239 L10.5244584,5.48432582 L26.3121068,5.48432582 L26.3121068,26.5336401 L5.26279245,26.5336401 L5.26279245,0.221997239 L-0.000198803497,0.221997239 L-0.000198803497,31.7959687 L31.5744353,31.7959687 L31.5744353,0.221997239 L10.5244584,0.221997239 Z M10.5244584,21.2713116 L21.0497782,21.2713116 L21.0497782,10.7466544 L10.5244584,10.7466544 L10.5244584,21.2713116 Z" mask="url(#b)"/><path fill="#0083DB" fill-rule="nonzero" d="M10.5244584,0.221997239 L10.5244584,5.48432582 L26.3121068,5.48432582 L26.3121068,26.5336401 L5.26279245,26.5336401 L5.26279245,0.221997239 L-0.000198803497,0.221997239 L-0.000198803497,31.7959687 L31.5744353,31.7959687 L31.5744353,0.221997239 L10.5244584,0.221997239 Z M10.5244584,21.2713116 L21.0497782,21.2713116 L21.0497782,10.7466544 L10.5244584,10.7466544 L10.5244584,21.2713116 Z" mask="url(#b)"/></g></svg>